<svg xmlns="http://www.w3.org/2000/svg" width="1280" height="720" viewBox="0 0 1280 720" role="img" aria-labelledby="title desc">
  <title id="title">Claude to Codex help output</title>
  <desc id="desc">A terminal screenshot showing npm run handoff -- --help and the Claude to Codex command usage output.</desc>
  <defs>
    <linearGradient id="bg" x1="0" y1="0" x2="1" y2="1">
      <stop offset="0" stop-color="#111827"/>
      <stop offset="1" stop-color="#0f172a"/>
    </linearGradient>
    <linearGradient id="bar" x1="0" y1="0" x2="1" y2="0">
      <stop offset="0" stop-color="#1f2937"/>
      <stop offset="1" stop-color="#111827"/>
    </linearGradient>
    <filter id="shadow" x="-10%" y="-20%" width="120%" height="140%">
      <feDropShadow dx="0" dy="24" stdDeviation="24" flood-color="#020617" flood-opacity="0.45"/>
    </filter>
  </defs>
  <rect width="1280" height="720" fill="#e5e7eb"/>
  <rect x="105" y="70" width="1070" height="610" rx="16" fill="url(#bg)" filter="url(#shadow)"/>
  <rect x="105" y="70" width="1070" height="54" rx="16" fill="url(#bar)"/>
  <rect x="105" y="108" width="1070" height="16" fill="#111827"/>
  <circle cx="138" cy="97" r="7" fill="#ef4444"/>
  <circle cx="164" cy="97" r="7" fill="#f59e0b"/>
  <circle cx="190" cy="97" r="7" fill="#22c55e"/>
  <text x="640" y="102" fill="#cbd5e1" font-family="SFMono-Regular, Menlo, Consolas, monospace" font-size="15" text-anchor="middle">claude-to-codex</text>
  <g font-family="SFMono-Regular, Menlo, Consolas, monospace" font-size="21">
    <text x="145" y="160" fill="#94a3b8">$</text>
    <text x="178" y="160" fill="#e5e7eb">npm run handoff -- --help</text>
    <text x="145" y="210" fill="#64748b">&gt; node plugins/claude-to-codex/scripts/claude-to-codex.mjs --help</text>
    <text x="145" y="270" fill="#f8fafc">Slash command usage:</text>
    <text x="430" y="270" fill="#38bdf8">/handoff</text>
    <text x="145" y="310" fill="#f8fafc">Advanced CLI usage:</text>
    <text x="398" y="310" fill="#a7f3d0">node claude-to-codex.mjs [options] [note]</text>
    <text x="145" y="360" fill="#f8fafc">Options:</text>
    <text x="145" y="398" fill="#38bdf8">--check</text>
    <text x="340" y="398" fill="#cbd5e1">Diagnose Codex, git, transcript, write access, launch helpers</text>
    <text x="145" y="436" fill="#38bdf8">--mode</text>
    <text x="340" y="436" fill="#cbd5e1">auto | tmux | terminal | print</text>
    <text x="145" y="474" fill="#38bdf8">--session</text>
    <text x="340" y="474" fill="#cbd5e1">Use a specific Claude session id</text>
    <text x="145" y="512" fill="#38bdf8">--transcript</text>
    <text x="340" y="512" fill="#cbd5e1">Use an exact Claude JSONL transcript path</text>
    <text x="145" y="550" fill="#38bdf8">--tail</text>
    <text x="340" y="550" fill="#cbd5e1">Keep 3 to 200 recent digest entries</text>
    <text x="145" y="600" fill="#f8fafc">Creates ~/.claude/handoffs/&lt;timestamp&gt;-&lt;session&gt;/</text>
    <text x="145" y="638" fill="#f8fafc">and launches Codex when possible.</text>
  </g>
</svg>
